<svg xmlns="http://www.w3.org/2000/svg" width="142.7" height="115.4" viewBox="0 0 142.7 115.4">
  <g id="b513786b-8520-4a38-b6a3-378e52b02e7c" data-name="Layer 2">
    <g id="f52956d0-0e95-4713-a76e-8480fe6855cb" data-name="Layer 1">
      <g>
        <path d="M57.2,2.8a2.9,2.9,0,0,0-2.1.8,2.9,2.9,0,0,0-.7,2.2V50.4a2.9,2.9,0,0,0,.7,2.2,2.9,2.9,0,0,0,2.1.8,9.1,9.1,0,0,0,2.6-.5v1.8H43.6V52.9a8.5,8.5,0,0,0,2.5.5,2.9,2.9,0,0,0,2.1-.8,2.9,2.9,0,0,0,.8-2.2V4.2l-17.8,52h-1L10.9,8.9V50.4a2.6,2.6,0,0,0,1.4,2.2,6.7,6.7,0,0,0,3.3.8,9.2,9.2,0,0,0,2.8-.5v1.8H2.2V52.9a8.7,8.7,0,0,0,2.8.5,6.2,6.2,0,0,0,3.1-.8,2.6,2.6,0,0,0,1.2-2.2V5.8a2.5,2.5,0,0,0-1-2.2,4.7,4.7,0,0,0-2.8-.8,12.7,12.7,0,0,0-2.6.4V1.4H14l18.6,46,14.9-46H59.8V3.2A13.8,13.8,0,0,0,57.2,2.8Z" style="fill: #828282"/>
        <path d="M65.9,54a1.5,1.5,0,0,0,1.6-.9,6.4,6.4,0,0,0,.4-2.7V24.8a8.5,8.5,0,0,1-2.3.3H64.1V23h.6a1,1,0,0,0,.6.9,2.1,2.1,0,0,0,1.2.4,2.5,2.5,0,0,0,1.8-.8,21.6,21.6,0,0,0,2-2.5h2.1V50.4a8.7,8.7,0,0,0,.3,2.7,1.4,1.4,0,0,0,1.5.9l1.8-.4v1.1H64.1V53.6A5.4,5.4,0,0,0,65.9,54Zm2.4-38.4a2.5,2.5,0,0,1-.9-2,2.5,2.5,0,0,1,.9-2,3,3,0,0,1,2.1-.8,3.3,3.3,0,0,1,2.2.8,2.7,2.7,0,0,1,.9,2,2.5,2.5,0,0,1-.9,2,2.7,2.7,0,0,1-2.2.8A2.6,2.6,0,0,1,68.3,15.6Z" style="fill: #828282"/>
        <path d="M121.3,46.1a11.4,11.4,0,0,1-.9,4.2,9.9,9.9,0,0,1-2.6,3.7,6.5,6.5,0,0,1-4,1.4,3.3,3.3,0,0,1-3.4-2,17.1,17.1,0,0,1-.8-5.8V22.1h-4.8V21h4.8V13.3a2.5,2.5,0,0,0,2.2-1,3.7,3.7,0,0,0,.8-2.1q0-4.6-3-6.9a11.2,11.2,0,0,0-7-2.2c-3.2,0-5.6.6-7.1,1.9a13.8,13.8,0,0,0-3.8,5.4,8.2,8.2,0,0,0-.6,2.4,18.4,18.4,0,0,0-.3,3.3c0,3,.7,5,2.1,5.8a10.2,10.2,0,0,1,3.4,1.4,4.5,4.5,0,0,1,1.8,2l.5-3.6h.9v9.4h-1a9.3,9.3,0,0,0-.9-4,7.6,7.6,0,0,0-2.5-3.3,5.6,5.6,0,0,0-3.7-1.3,5.4,5.4,0,0,0-4.3,1.7,7.8,7.8,0,0,0-1.5,5.1A4.3,4.3,0,0,0,87.4,31a24.3,24.3,0,0,0,5.2,3.1,42.5,42.5,0,0,1,4.9,2.6,11.2,11.2,0,0,1,3.2,3.3,9.2,9.2,0,0,1,1.3,5.1,9.7,9.7,0,0,1-1.3,4.9,10.4,10.4,0,0,1-3.6,3.9,9.6,9.6,0,0,1-5.3,1.5,10.2,10.2,0,0,1-9.1-4.6L82,54.7h-.9V41.8h1.3q0,12.6,8.1,12.6a5.5,5.5,0,0,0,5-2.6,10.8,10.8,0,0,0,1.7-6.2A5.6,5.6,0,0,0,95.1,41a22.4,22.4,0,0,0-6-3.6l-4.3-2.3a11,11,0,0,1-2.7-2.6A6.1,6.1,0,0,1,81,28.9c0-3,.9-5.2,2.8-6.8a10.3,10.3,0,0,1,7-2.4h.4a8,8,0,0,1-2.3-3.5,11.6,11.6,0,0,1-.8-4.5,12.3,12.3,0,0,1,.6-3.9,10.9,10.9,0,0,1,5-5.8,19.3,19.3,0,0,1,9-2,12,12,0,0,1,5.5,1.3A11.1,11.1,0,0,1,112.5,5a9.8,9.8,0,0,1,1.7,5.7V21H120v1.1h-5.9V47.4a10.6,10.6,0,0,0,.6,4.2,1.7,1.7,0,0,0,1.8,1.2,2.8,2.8,0,0,0,2.3-1.2,8.3,8.3,0,0,0,1.4-3,9.9,9.9,0,0,0,.5-2.5Z" style="fill: #828282"/>
        <path d="M68.3,61.4v1.8a11.4,11.4,0,0,0-2.6-.5c-1.5,0-2.4.6-2.7,1.6s-1.2,4.3-2.6,10c-6.1,24.3-9.3,36.6-9.4,37l-.8,3.4H45.9L34.8,75.9l-9,35.3h0l-.2.5-.7,2.9H20.7L6.6,65.8a3.4,3.4,0,0,0-1.4-2.2,4.5,4.5,0,0,0-2.6-.8,12.7,12.7,0,0,0-2.6.4V61.4H17.4v1.8a13.8,13.8,0,0,0-2.6-.4,3.5,3.5,0,0,0-1.8.5,1.8,1.8,0,0,0-.6,1.5,3.1,3.1,0,0,0,.1,1L25,108.4l8.6-36.5-1.8-6.1a7.1,7.1,0,0,0-1-2.3,2.2,2.2,0,0,0-1.9-.7l-2.3.4V61.4H45.3v1.8a15.4,15.4,0,0,0-3-.4,7.4,7.4,0,0,0-3.6.8,1.7,1.7,0,0,0-1,2.2l12.6,42.7L60.5,65.8a3.7,3.7,0,0,0,.1-1.1c0-1.4-.8-2.1-2.6-2.1a11.1,11.1,0,0,0-3.4.6V61.4Z" style="fill: #828282"/>
        <path d="M64.5,113a9.3,9.3,0,0,1-2.7-7.1,8,8,0,0,1,2.2-5.7A12.6,12.6,0,0,1,68.9,97l3.2-.8,2.5-.6A35.8,35.8,0,0,0,80,94.3a3.4,3.4,0,0,0,2.2-1.7,17.4,17.4,0,0,0-2-8.6c-1.3-2.3-3.5-3.5-6.6-3.5a4.8,4.8,0,0,0-4.3,2.1,9.7,9.7,0,0,0-1.4,5.5,1.7,1.7,0,0,0,.4,1.3c.2.3.7.4,1.6.4a2.3,2.3,0,0,0,1.4-.4.9.9,0,0,0,.6-.8h.6v1.9H63.1a10,10,0,0,1,1.5-5.1,12.1,12.1,0,0,1,4.2-4.2,10.7,10.7,0,0,1,5.9-1.6,10.7,10.7,0,0,1,6.9,2,11.3,11.3,0,0,1,3.8,4.7,15.8,15.8,0,0,1,1.1,5.5v15.6c0,3.6.7,5.4,2.3,5.4s.9-.3,1.3-.9a3.9,3.9,0,0,0,.6-2h.7a5.1,5.1,0,0,1-1.6,4.1,5.2,5.2,0,0,1-3.7,1.4,3.1,3.1,0,0,1-3.2-2.1,20,20,0,0,1-.7-6.1v-3.3a16.3,16.3,0,0,1-1,3.8,14.5,14.5,0,0,1-3.4,5.3,9,9,0,0,1-6.5,2.4A9.9,9.9,0,0,1,64.5,113Zm13-1.5a15,15,0,0,0,3.3-4.6,11.6,11.6,0,0,0,1.2-4.5V94.2c0,.1-.2.3-.7.4l-1.8.5-6.9,2a9.6,9.6,0,0,0-4.9,3.4,8,8,0,0,0-1.6,4.9,9.1,9.1,0,0,0,1.8,5.6,5.7,5.7,0,0,0,5,2.4A6.5,6.5,0,0,0,77.5,111.5Z" style="fill: #828282"/>
        <path d="M96.1,114a1.7,1.7,0,0,0,1.7-.9,9.1,9.1,0,0,0,.3-2.7V61.1l-1.6.2-2.2-.2v-2H95c0,.3.2.6.7.9a4.2,4.2,0,0,0,1.5.4,4.8,4.8,0,0,0,2.9-.9,2.9,2.9,0,0,0,1.2-2.4h1.4v53.3a8.7,8.7,0,0,0,.3,2.7,1.4,1.4,0,0,0,1.5.9,5.4,5.4,0,0,0,1.8-.4v1.1H94.3v-1.1A5.4,5.4,0,0,0,96.1,114Z" style="fill: #828282"/>
        <path d="M138.1,112.2a4.5,4.5,0,0,0,3.2,1.7,3.5,3.5,0,0,0,1.4-.3v1.1H128.4v-1.1l1.6.3a2.3,2.3,0,0,0,1.6-.5,1.2,1.2,0,0,0,.6-1,1.5,1.5,0,0,0-.3-1l-7.5-10.9-4.6-6.8L117,96.4v14a8.7,8.7,0,0,0,.3,2.7,1.4,1.4,0,0,0,1.5.9,5.4,5.4,0,0,0,1.8-.4v1.1H109.1v-1.1a5.4,5.4,0,0,0,1.8.4,1.5,1.5,0,0,0,1.6-.9,6.4,6.4,0,0,0,.4-2.7V61.1l-1.7.2-2.1-.2v-2h.6c0,.3.3.6.8.9a4.2,4.2,0,0,0,1.5.4,4.5,4.5,0,0,0,2.8-.9,3,3,0,0,0,1.1-2.4h1.2v38l4.7-4.4c2.6-2.3,4.6-4.2,6-5.6a2.9,2.9,0,0,0,1.1-1.9,1.2,1.2,0,0,0-.5-1,2.4,2.4,0,0,0-1.5-.4,6.8,6.8,0,0,0-2.1.4V81.1h12.2v1.1a5.4,5.4,0,0,0-2-.4,5.3,5.3,0,0,0-3,.9,28.4,28.4,0,0,0-3.1,2.6c-1.3,1.4-3.2,3.1-5.5,5.2L133.6,106A43.9,43.9,0,0,0,138.1,112.2Z" style="fill: #828282"/>
      </g>
    </g>
  </g>
</svg>
